<svg width="319" height="576" viewBox="0 0 319 576" fill="none" xmlns="http://www.w3.org/2000/svg">
<g filter="url(#filter0_d_6_2)">
<path d="M159.449 304.055C160.721 305.327 160.828 308.802 160.956 312.963C161.079 316.976 161.221 321.627 162.449 325.555C163.833 329.985 167.211 341.775 170.459 353.113C173.077 362.25 175.61 371.092 176.949 375.555C176.863 377.494 176.855 380.096 176.994 383.055M159.449 304.055C166.949 304.055 172.449 292.055 175.949 275.555C179.449 259.055 193.087 244.555 207.018 244.555M159.449 304.055C152.449 304.055 146.949 295.055 142.449 275.555C138.849 255.955 120.616 246.721 111.949 244.555M159.449 304.055C157.449 306.855 157.282 318.221 157.449 323.555C157.449 327.135 154.698 335.152 151.477 344.541C147.052 357.439 141.738 372.927 141.449 383.055M207.018 244.555C207.296 253.304 208.548 267.633 213.949 284.555C222.449 306.055 219.949 374.055 215.449 386.055M207.018 244.555C206.91 241.153 206.949 238.594 206.949 237.055C206.949 231.555 198.949 199.055 211.449 186.555C217.049 177.755 218.782 167.888 218.949 164.055M207.018 244.555C199.828 244.388 185.849 240.355 187.449 225.555C189.449 207.055 184.249 176.555 184.949 175.055M215.449 386.055C212.949 390.055 207.449 394.555 203.449 390.555C201.792 390.555 201.165 393.214 200.43 396.33C199.39 400.736 198.135 406.055 193.449 406.055C185.449 406.055 181.449 402.055 176.994 383.055M215.449 386.055C210.949 396.555 218.949 399.055 216.949 416.055M176.994 383.055C177.392 391.534 179.001 402.938 183.449 410.055C186.02 413.36 187.579 416.261 188.449 419.03M111.949 244.555C111.704 253.619 109.178 263.163 106.666 272.658C104.05 282.543 101.449 292.374 101.449 301.555C98.4489 321.055 95.0489 365.255 105.449 386.055M111.949 244.555C112.949 229.555 115.949 225.555 115.449 202.055C112.449 191.055 102.949 183.555 98.9489 164.055M111.949 244.555C131.449 246.555 132.949 226.055 130.949 207.055C129.749 201.455 132.782 184.388 134.449 176.555M141.449 383.055C141.449 391.555 136.449 402.555 127.449 406.055C121.926 405.73 120.625 401.605 119.293 397.383C118.576 395.109 117.85 392.806 116.449 391.055C109.249 395.055 106.116 389.388 105.449 386.055M141.449 383.055C142.449 390.555 138.949 411.055 129.449 420.555M105.449 386.055C106.449 403.555 101.449 402.055 103.449 413.555M15.9489 247.555C14.2822 254.555 9.84886 269.455 5.44886 273.055C2.94886 290.555 4.94888 301.555 7.44886 303.555C8.61554 303.721 10.9489 303.055 10.9489 299.055M15.9489 247.555C22.7822 229.888 38.1489 193.455 44.9489 189.055C52.1489 183.455 56.2822 176.388 57.4489 173.555M15.9489 247.555C18.4489 250.888 24.6489 256.755 29.4489 253.555M10.9489 299.055C13.4489 301.555 14.4489 296.555 13.9489 292.055C13.4489 287.555 16.9489 275.555 18.9489 275.055M10.9489 299.055C9.94888 295.555 8.94888 279.555 18.9489 275.055M18.9489 275.055C17.4489 283.555 20.4489 286.555 22.9489 287.055C25.4489 287.555 26.9489 284.055 26.9489 280.055C26.4489 273.055 27.4489 265.555 30.4489 264.055C31.9489 261.055 27.9489 257.555 29.4489 253.555M29.4489 253.555C37.9489 247.555 35.9489 242.555 44.9489 239.055C53.9489 235.555 70.9489 198.555 75.4489 196.055C75.757 194.822 76.8668 192.978 78.4489 190.777M98.9489 164.055C97.757 168.425 84.569 182.266 78.4489 190.777M98.9489 164.055C100.282 161.221 102.649 153.455 101.449 145.055M103.449 413.555C93.9489 432.555 92.9489 454.555 100.449 499.055C103.449 526.055 93.4489 530.555 91.4489 537.555C89.4489 544.555 76.4489 546.055 76.9489 556.055C77.4489 566.055 91.4489 566.555 91.4489 565.055C93.0489 570.655 99.7822 564.055 102.949 560.055C110.449 560.055 106.449 549.055 112.449 548.555C118.449 548.055 118.449 542.055 117.949 534.055C116.949 521.055 119.449 506.055 120.949 492.555C122.449 474.055 130.449 470.055 131.449 451.555C132.449 433.055 127.449 430.055 129.449 420.555M103.449 413.555C109.449 417.055 107.949 424.055 113.449 425.555C118.949 427.055 126.449 425.055 129.449 420.555M216.949 416.055C228.449 443.055 219.449 483.055 219.949 504.555C215.949 522.055 224.949 538.555 238.949 550.055C246.949 560.055 234.449 567.555 229.949 564.555C229.782 565.555 228.049 567.555 222.449 567.555C217.449 565.555 215.949 559.055 209.949 556.555C211.449 552.055 208.949 548.555 200.949 544.055C199.949 538.555 203.949 528.555 199.449 524.055C202.949 509.055 194.949 473.055 187.449 461.555C187.949 454.055 186.949 442.055 188.449 433.555C189.398 428.177 189.947 423.8 188.449 419.03M216.949 416.055C215.092 411.055 208.949 417.055 205.449 426.055C200.949 428.055 194.949 428.055 188.449 419.03M218.949 164.055C218.449 161.721 217.449 155.955 217.449 151.555C217.449 148.839 217.327 146.002 218.949 143.825M218.949 164.055C226.376 170.987 234.539 180.984 240.949 190.221M57.4489 173.555C60.2489 157.555 69.6155 146.888 73.9489 143.555M57.4489 173.555C56.1155 179.055 54.6489 190.955 59.4489 194.555C64.9489 198.055 71.4489 197 78.4489 190.777M73.9489 143.555C75.9489 128.721 86.3489 98.9546 111.949 98.5546M73.9489 143.555C77.4557 140.983 82.821 139.504 87.9489 139.426M111.949 98.5546C122.949 89.5546 137.949 88.0546 140.449 81.0546M111.949 98.5546C115.449 98.2212 124.149 98.5546 130.949 102.555M140.449 81.0546C140.449 71.8546 140.449 64.5546 140.449 62.0546M140.449 81.0546C140.449 98.5546 141.449 101.055 130.949 102.555M140.449 62.0546C139.782 60.5546 138.649 57.1546 139.449 55.5546C135.849 56.3546 133.949 53.2212 133.449 51.5546C131.949 44.0546 132.449 37.5546 136.949 38.5546C132.949 29.5546 131.449 5.05456 146.949 4.55456C144.149 3.75456 143.116 3.88789 142.949 4.05456C147.449 1.22123 158.449 -2.74544 166.449 4.05456C166.849 1.65456 165.616 0.721232 164.949 0.554566C176.949 1.55457 181.949 7.55457 182.949 14.0546C183.749 19.2546 183.282 31.8879 182.949 37.5546C186.949 39.5546 186.949 41.5546 186.949 45.0546C186.949 48.5546 185.949 55.5546 179.949 56.0546M140.449 62.0546C145.649 72.4546 155.616 75.7212 159.949 76.0546C164.949 76.0546 180.949 67.0546 179.949 56.0546M179.949 56.0546C178.749 61.6546 178.449 65.0546 178.449 66.0546V82.0546M178.449 82.0546C185.949 91.0546 201.449 90.5546 207.449 99.0546M178.449 82.0546C177.782 86.3879 177.949 96.3546 183.949 101.555M207.449 99.0546C214.449 100.055 232.949 103.555 237.449 118.555C241.449 128.555 244.449 140.055 245.449 144.555M207.449 99.0546C204.449 98.566 193.949 99.0546 183.949 101.555M245.449 144.555C255.049 152.555 260.782 168.888 262.449 176.055M245.449 144.555C243.449 142.888 237.849 139.655 231.449 140.055M262.449 176.055C279.949 190.555 285.949 208.555 292.449 223.555C295.034 229.521 298.41 237.86 301.728 246.055M262.449 176.055C262.782 179.555 263.249 187.288 262.449 190.221C261.449 193.888 254.949 202.555 240.949 190.221M290.449 255.055C289.282 256.888 287.249 261.255 288.449 264.055C289.449 264.888 291.649 268.055 292.449 274.055C291.949 278.388 292.049 287.055 296.449 287.055C301.949 287.055 300.449 280.055 300.449 274.555C303.449 274.555 304.949 290.555 304.949 293.055C304.949 295.555 304.949 300.555 307.949 299.055C307.616 299.721 307.649 301.455 310.449 303.055C313.949 305.055 315.949 287.555 313.449 273.555C311.642 270.543 306.752 258.464 301.728 246.055M290.449 255.055C287.449 250.721 280.749 241.855 277.949 241.055C273.449 237.555 261.449 230.555 252.449 212.055C252.196 208.268 247.484 199.64 240.949 190.221M290.449 255.055C298.449 256.055 301.508 250.055 301.728 246.055M101.449 145.055C99.3192 141.061 93.7879 139.336 87.9489 139.426M101.449 145.055C118.949 162.055 131.422 161.869 139.949 158.055M101.449 145.055C111.949 154.555 133.249 174.155 134.449 176.555M87.9489 139.426C114.449 123.555 115.449 105.555 130.949 102.555M130.949 102.555C148.449 97.5546 157.449 102.555 158.949 109.055M158.949 109.055C161.949 102.555 169.949 98.5546 183.949 101.555M158.949 109.055V136.555M183.949 101.555C207.449 109.055 220.949 140.055 231.449 140.055M231.449 140.055C224.108 140.055 220.612 141.592 218.949 143.825M218.949 143.825C215.39 147.48 211.13 151.708 205.949 154.838M178.449 157.055C162.849 151.055 158.949 140.888 158.949 136.555M178.449 157.055C172.949 154.055 158.949 152.055 158.949 160.055C158.949 151.655 144.449 156.041 139.949 158.055M178.449 157.055C182.782 158.888 190.149 165.055 184.949 175.055M178.449 157.055C189.785 161.414 198.755 159.185 205.949 154.838M158.949 136.555C156.949 148.555 146.655 155.055 139.949 158.055M139.949 158.055C129.449 164.555 131.449 167.555 134.449 176.555M134.449 176.555C134.949 196.555 136.749 239.055 139.949 249.055C143.949 261.555 153.449 277.055 159.449 277.055C165.449 277.055 175.949 257.555 179.449 249.055C182.949 240.555 184.949 183.055 184.949 175.055M184.949 175.055C191.949 167.555 200.449 161.122 205.949 154.838M159.949 165.055V173.055M159.949 173.055C154.746 173.221 143.362 174.255 139.449 177.055C153.949 175.055 159.949 177.555 159.949 182.055C159.949 177.055 171.449 177.055 178.949 177.055C172.949 173.855 163.782 173.055 159.949 173.055ZM159.949 187.555V196.555M159.949 196.555C155.549 198.955 144.449 199.221 139.449 199.055C155.049 199.455 159.616 205.221 159.949 208.055C159.949 205.055 169.449 199.055 178.949 199.055C170.949 199.055 162.949 197.388 159.949 196.555ZM159.949 236.555V270.555M159.949 212.555C159.949 217.055 158.949 222.055 140.449 222.055C155.449 222.055 159.949 229.055 159.949 232.555C159.949 229.055 168.949 222.055 179.449 222.055C168.949 222.055 159.949 222.555 159.949 212.555Z" stroke="black" stroke-width="0.6" shape-rendering="crispEdges"/>
</g>
<defs>
<filter id="filter0_d_6_2" x="0" y="0" width="318.866" height="575.854" filterUnits="userSpaceOnUse" color-interpolation-filters="sRGB">
<feFlood flood-opacity="0" result="BackgroundImageFix"/>
<feColorMatrix in="SourceAlpha" type="matrix" values="0 0 0 0 0 0 0 0 0 0 0 0 0 0 0 0 0 0 127 0" result="hardAlpha"/>
<feOffset dy="4"/>
<feGaussianBlur stdDeviation="2"/>
<feComposite in2="hardAlpha" operator="out"/>
<feColorMatrix type="matrix" values="0 0 0 0 0 0 0 0 0 0 0 0 0 0 0 0 0 0 0.25 0"/>
<feBlend mode="normal" in2="BackgroundImageFix" result="effect1_dropShadow_6_2"/>
<feBlend mode="normal" in="SourceGraphic" in2="effect1_dropShadow_6_2" result="shape"/>
</filter>
</defs>
</svg>
